<svg width="122" height="46" viewBox="0 0 122 46" fill="none" xmlns="http://www.w3.org/2000/svg">
<path fill-rule="evenodd" clip-rule="evenodd" d="M22.7371 11.3184C22.47 8.74759 21.5351 6.89457 19.9325 5.75939C18.3633 4.59082 16.3433 4.00653 13.8726 4.00653C12.871 4.00653 11.886 4.10669 10.9178 4.30702C9.94955 4.50735 9.08147 4.84122 8.31355 5.30865C7.57902 5.77608 6.97804 6.41045 6.51061 7.21176C6.07657 7.97967 5.85955 8.94792 5.85955 10.1165C5.85955 11.2183 6.17674 12.1198 6.8111 12.8209C7.47886 13.4887 8.34694 14.0396 9.41535 14.4736C10.5171 14.9076 11.7525 15.2749 13.1214 15.5754C14.4903 15.8425 15.8759 16.143 17.2782 16.4769C18.7138 16.8107 20.1161 17.2114 21.485 17.6788C22.8539 18.1129 24.0726 18.7138 25.141 19.4818C26.2428 20.2497 27.1109 21.2179 27.7452 22.3865C28.413 23.5551 28.7469 25.0241 28.7469 26.7937C28.7469 28.6968 28.3128 30.3328 27.4447 31.7017C26.61 33.0372 25.5249 34.139 24.1894 35.0071C22.8539 35.8418 21.3515 36.4427 19.6821 36.81C18.0461 37.2107 16.4101 37.411 14.7741 37.411C12.7708 37.411 10.8677 37.1606 9.06478 36.6598C7.29523 36.1589 5.726 35.4077 4.3571 34.4061C3.02159 33.3711 1.95318 32.0689 1.15188 30.4997C0.383959 28.8971 0 27.0107 0 24.8405H4.50735C4.50735 26.3429 4.79114 27.6451 5.35874 28.7469C5.95971 29.8153 6.72763 30.7 7.66249 31.4012C8.63074 32.1023 9.74922 32.6198 11.018 32.9537C12.2867 33.2876 13.5888 33.4545 14.9243 33.4545C15.9927 33.4545 17.0611 33.3544 18.1296 33.154C19.2313 32.9537 20.2163 32.6198 21.0844 32.1524C21.9525 31.6516 22.6536 30.9838 23.1878 30.1491C23.722 29.3144 23.9891 28.246 23.9891 26.9439C23.9891 25.7086 23.6552 24.7069 22.9875 23.939C22.3531 23.1711 21.485 22.5534 20.3832 22.086C19.3148 21.5852 18.0962 21.1845 16.7273 20.884C15.3584 20.5835 13.9561 20.2831 12.5204 19.9826C11.1181 19.6487 9.73253 19.2814 8.36363 18.8808C6.99474 18.4467 5.75939 17.8958 4.65759 17.2281C3.58918 16.5269 2.7211 15.6422 2.05335 14.5738C1.41898 13.472 1.1018 12.1031 1.1018 10.4671C1.1018 8.66412 1.46906 7.11159 2.20359 5.80947C2.93812 4.47396 3.90637 3.38886 5.10833 2.55416C6.34367 1.68608 7.72927 1.05171 9.2651 0.651059C10.8343 0.21702 12.4369 0 14.0729 0C15.9093 0 17.612 0.21702 19.1813 0.651059C20.7505 1.0851 22.1194 1.76955 23.288 2.70441C24.4899 3.63926 25.4248 4.82453 26.0925 6.2602C26.7937 7.66249 27.1776 9.34857 27.2444 11.3184H22.7371ZM44.895 10.7172H39.7366V2.95459H35.4796V10.7172H31.0724V14.4734H35.4796V30.9502C35.4796 32.1522 35.5965 33.1204 35.8302 33.855C36.0639 34.5895 36.4145 35.1571 36.8819 35.5577C37.3827 35.9584 38.0171 36.2422 38.785 36.4091C39.5863 36.5427 40.5379 36.6095 41.6397 36.6095H44.895V32.8533H42.9418C42.274 32.8533 41.7231 32.8366 41.2891 32.8032C40.8884 32.7365 40.5713 32.6196 40.3375 32.4527C40.1038 32.2857 39.9369 32.052 39.8367 31.7515C39.77 31.451 39.7366 31.0504 39.7366 30.5496V14.4734H44.895V10.7172ZM53.4806 10.7177H49.4741V36.6099H53.731V25.0911C53.731 23.4217 53.898 21.9527 54.2318 20.6839C54.5657 19.3818 55.0999 18.28 55.8344 17.3785C56.569 16.4771 57.5372 15.7926 58.7392 15.3252C59.9411 14.8578 61.3935 14.6241 63.0963 14.6241V10.1167C60.7925 10.0499 58.8894 10.5174 57.387 11.519C55.8845 12.5206 54.6158 14.0732 53.5808 16.1766H53.4806V10.7177ZM85.7898 23.7762C85.7898 28.7895 81.7257 32.8535 76.7125 32.8535C72.9245 32.8535 69.6785 30.5333 68.318 27.2365C67.878 26.1701 67.6352 25.0015 67.6352 23.7762C67.6352 18.763 71.6992 14.6989 76.7125 14.6989C81.7257 14.6989 85.7898 18.763 85.7898 23.7762ZM90.1719 23.7762C90.1719 31.2097 84.1459 37.2357 76.7125 37.2357C69.279 37.2357 63.253 31.2097 63.253 23.7762C63.253 16.3428 69.279 10.3168 76.7125 10.3168C84.1459 10.3168 90.1719 16.3428 90.1719 23.7762ZM117.091 23.7763C117.091 28.7895 113.027 32.8536 108.014 32.8536C103.001 32.8536 98.9365 28.7895 98.9365 23.7763C98.9365 18.763 103.001 14.699 108.014 14.699C113.027 14.699 117.091 18.763 117.091 23.7763ZM121.473 23.7763C121.473 31.2097 115.447 37.2357 108.014 37.2357C104.036 37.2357 100.461 35.5103 97.9975 32.767V41.761H121.515V45.9999H97.9975V46H93.6153V45.9999H0V41.761H93.6153V10.3168H97.9975V14.7855C100.461 12.0423 104.036 10.3168 108.014 10.3168C115.447 10.3168 121.473 16.3428 121.473 23.7763Z" fill="white"/>
</svg>
