<svg width="1920" height="465" viewBox="0 0 1920 465" fill="none" xmlns="http://www.w3.org/2000/svg">
<path fill-rule="evenodd" clip-rule="evenodd" d="M315.053 91.0327C340.383 108.975 355.16 138.264 359.382 178.899H430.625C429.569 147.763 423.5 121.113 412.418 98.9487C401.864 76.2564 387.087 57.5221 368.089 42.7458C349.619 27.9695 327.982 17.1511 303.179 10.2906C278.376 3.43021 251.462 0 222.437 0C196.578 0 171.247 3.43021 146.444 10.2906C122.169 16.6233 100.268 26.6501 80.7421 40.371C61.744 53.5642 46.4399 70.7153 34.8299 91.8243C23.22 112.406 17.415 136.945 17.415 165.442C17.415 191.301 22.4284 212.937 32.4552 230.352C43.0097 247.24 56.7306 261.224 73.6178 272.307C91.0328 282.861 110.559 291.569 132.195 298.429C153.832 304.762 175.733 310.567 197.897 315.844C220.59 320.594 242.754 325.343 264.391 330.093C286.028 334.842 305.29 341.175 322.177 349.091C339.592 356.479 353.313 366.242 363.339 378.38C373.894 390.517 379.171 406.349 379.171 425.875C379.171 446.456 374.949 463.344 366.506 476.537C358.062 489.73 346.98 500.284 333.259 508.2C319.538 515.588 303.97 520.866 286.555 524.032C269.668 527.198 252.781 528.782 235.894 528.782C214.785 528.782 194.203 526.143 174.15 520.866C154.096 515.588 136.417 507.409 121.113 496.326C106.337 485.244 94.1991 471.259 84.7001 454.372C75.7287 436.957 71.243 416.376 71.243 392.628H0C0 426.93 6.06885 456.747 18.2066 482.078C30.872 506.881 47.7592 527.462 68.8683 543.822C90.505 559.654 115.308 571.527 143.278 579.443C171.775 587.359 201.855 591.317 233.519 591.317C259.377 591.317 285.236 588.151 311.095 581.818C337.481 576.013 361.229 566.514 382.338 553.321C403.447 539.6 420.598 522.185 433.791 501.076C447.512 479.439 454.372 453.581 454.372 423.5C454.372 395.531 449.095 372.311 438.54 353.84C428.514 335.37 414.793 320.066 397.378 307.928C380.491 295.79 361.229 286.291 339.592 279.431C317.955 272.043 295.791 265.71 273.098 260.433C250.934 255.156 229.033 250.406 207.396 246.184C185.76 241.435 166.234 235.63 148.819 228.769C131.932 221.909 118.211 213.201 107.656 202.647C97.6293 191.565 92.616 177.316 92.616 159.901C92.616 141.431 96.0462 126.127 102.907 113.989C110.295 101.323 119.794 91.2966 131.404 83.9085C143.542 76.5203 157.262 71.243 172.566 68.0767C187.871 64.9103 203.438 63.3271 219.27 63.3271C258.322 63.3271 290.249 72.5623 315.053 91.0327ZM628.076 169.397H709.61V228.766H628.076V482.866C628.076 490.782 628.604 497.115 629.66 501.864C631.243 506.614 633.882 510.308 637.576 512.946C641.27 515.585 646.283 517.432 652.616 518.488C659.476 519.015 668.184 519.279 678.738 519.279H709.61V578.648H658.157C640.742 578.648 625.702 577.593 613.036 575.482C600.899 572.843 590.872 568.358 582.956 562.025C575.568 555.692 570.027 546.721 566.333 535.111C562.638 523.501 560.791 508.197 560.791 489.199V228.766H491.132V169.397H560.791V46.7002H628.076V169.397ZM781.986 169.404H845.313V255.687H846.896C863.256 222.44 883.309 197.901 907.057 182.069C930.805 166.237 960.885 158.849 997.298 159.905V231.148C970.384 231.148 947.428 234.842 928.43 242.23C909.432 249.618 894.128 260.436 882.518 274.685C870.908 288.934 862.464 306.349 857.187 326.93C851.91 346.984 849.271 370.204 849.271 396.59V578.655H781.986V169.404ZM1212.52 519.282C1291.76 519.282 1355.99 455.046 1355.99 375.807C1355.99 296.567 1291.76 232.331 1212.52 232.331C1133.28 232.331 1069.04 296.567 1069.04 375.807C1069.04 455.046 1133.28 519.282 1212.52 519.282ZM1212.52 588.546C1330.01 588.546 1425.26 493.299 1425.26 375.807C1425.26 258.314 1330.01 163.067 1212.52 163.067C1095.02 163.067 999.778 258.314 999.778 375.807C999.778 493.299 1095.02 588.546 1212.52 588.546ZM1479.68 727.074V163.067H1548.94V233.7C1587.89 190.34 1644.39 163.067 1707.26 163.067C1824.75 163.067 1920 258.314 1920 375.807C1920 493.299 1824.75 588.546 1707.26 588.546C1644.39 588.546 1587.89 561.273 1548.94 517.913V727.074H1479.68ZM1707.26 519.282C1786.5 519.282 1850.74 455.046 1850.74 375.807C1850.74 296.567 1786.5 232.331 1707.26 232.331C1628.02 232.331 1563.78 296.567 1563.78 375.807C1563.78 455.046 1628.02 519.282 1707.26 519.282Z" fill="white"/>
</svg>
